<svg viewBox="0 0 120 60" fill="none" xmlns="http://www.w3.org/2000/svg">
  <defs>
    <linearGradient id="logoGradient" x1="0%" y1="0%" x2="100%" y2="100%">
      <stop offset="0%" stop-color="#c4a574"/>
      <stop offset="100%" stop-color="#a08050"/>
    </linearGradient>
  </defs>
  <!-- Left lotus -->
  <g fill="url(#logoGradient)">
    <ellipse cx="15" cy="32" rx="4" ry="9" transform="rotate(-25 15 32)"/>
    <ellipse cx="11" cy="36" rx="3" ry="7" transform="rotate(-45 11 36)"/>
    <ellipse cx="19" cy="36" rx="3" ry="7" transform="rotate(45 19 36)"/>
    <circle cx="15" cy="42" r="2.5"/>
    <path d="M15 45 Q12 52 8 56" stroke="url(#logoGradient)" stroke-width="1.5" fill="none" stroke-linecap="round"/>
    <ellipse cx="6" cy="54" rx="2" ry="3.5" transform="rotate(-15 6 54)"/>
    <ellipse cx="10" cy="56" rx="1.5" ry="2.5" transform="rotate(15 10 56)"/>
  </g>
  <!-- Stylized M with elegant curves -->
  <path d="M22 52 Q30 18 42 12 Q52 28 60 5 Q68 28 78 12 Q90 18 98 52" 
        stroke="url(#logoGradient)" stroke-width="3.5" fill="none" stroke-linecap="round" stroke-linejoin="round"/>
  <!-- Inner M curves -->
  <path d="M42 12 Q48 32 55 38 Q58 25 60 5" 
        stroke="url(#logoGradient)" stroke-width="3" fill="none" stroke-linecap="round"/>
  <path d="M60 5 Q62 25 65 38 Q72 32 78 12" 
        stroke="url(#logoGradient)" stroke-width="3" fill="none" stroke-linecap="round"/>
  <!-- Right lotus -->
  <g fill="url(#logoGradient)">
    <ellipse cx="105" cy="32" rx="4" ry="9" transform="rotate(25 105 32)"/>
    <ellipse cx="109" cy="36" rx="3" ry="7" transform="rotate(45 109 36)"/>
    <ellipse cx="101" cy="36" rx="3" ry="7" transform="rotate(-45 101 36)"/>
    <circle cx="105" cy="42" r="2.5"/>
    <path d="M105 45 Q108 52 112 56" stroke="url(#logoGradient)" stroke-width="1.5" fill="none" stroke-linecap="round"/>
    <ellipse cx="114" cy="54" rx="2" ry="3.5" transform="rotate(15 114 54)"/>
    <ellipse cx="110" cy="56" rx="1.5" ry="2.5" transform="rotate(-15 110 56)"/>
  </g>
</svg>